<svg width="15" height="17" viewBox="0 0 15 17" fill="none" xmlns="http://www.w3.org/2000/svg">
<path fill-rule="evenodd" clip-rule="evenodd" d="M14.8298 11.8723C14.3961 11.1253 13.7515 9.0117 13.7515 6.25107C13.7515 2.7987 10.9528 0 7.50043 0C4.04806 0 1.24936 2.7987 1.24936 6.25107C1.24936 9.01248 0.603936 11.1253 0.170268 11.8723C-0.0551423 12.2589 -0.0567817 12.7364 0.16597 13.1245C0.388721 13.5126 0.801894 13.752 1.24936 13.7524H4.43819C4.73551 15.2072 6.01547 16.2521 7.50043 16.2521C8.98539 16.2521 10.2653 15.2072 10.5627 13.7524H13.7515C14.1988 13.7517 14.6117 13.5122 14.8343 13.1242C15.0569 12.7361 15.0551 12.2588 14.8298 11.8723ZM7.50043 15.0026C6.70591 15.0023 5.99778 14.5014 5.73294 13.7524H9.26792C9.00308 14.5014 8.29494 15.0023 7.50043 15.0026ZM1.24936 12.5021C1.85102 11.4676 2.49957 9.0703 2.49957 6.25107C2.49957 3.48917 4.73853 1.25021 7.50043 1.25021C10.2623 1.25021 12.5013 3.48917 12.5013 6.25107C12.5013 9.06796 13.1483 11.4652 13.7515 12.5021H1.24936Z" fill="#0D141C"/>
</svg>
